# Blender 3.6.12
# www.blender.org
mtllib test.mtl
o 棱角球
v 0.000000 -1.000000 0.000000
v 0.723600 -0.447215 0.525720
v -0.276385 -0.447215 0.850640
v -0.894425 -0.447215 0.000000
v -0.276385 -0.447215 -0.850640
v 0.723600 -0.447215 -0.525720
v 0.276385 0.447215 0.850640
v -0.723600 0.447215 0.525720
v -0.723600 0.447215 -0.525720
v 0.276385 0.447215 -0.850640
v 0.894425 0.447215 0.000000
v 0.000000 1.000000 0.000000
vn 0.1876 -0.7947 0.5774
vn 0.6071 -0.7947 -0.0000
vn -0.4911 -0.7947 0.3568
vn -0.4911 -0.7947 -0.3568
vn 0.1876 -0.7947 -0.5774
vn 0.9822 -0.1876 -0.0000
vn 0.3035 -0.1876 0.9342
vn -0.7946 -0.1876 0.5774
vn -0.7946 -0.1876 -0.5774
vn 0.3035 -0.1876 -0.9342
vn 0.7946 0.1876 0.5774
vn -0.3035 0.1876 0.9342
vn -0.9822 0.1876 -0.0000
vn -0.3035 0.1876 -0.9342
vn 0.7946 0.1876 -0.5774
vn 0.4911 0.7947 0.3568
vn -0.1876 0.7947 0.5774
vn -0.6071 0.7947 -0.0000
vn -0.1876 0.7947 -0.5774
vn 0.4911 0.7947 -0.3568
vt 0.332332 0.252002
vt 0.002002 0.498999
vt 0.332332 0.498999
vt 0.665666 0.248999
vt 0.665666 0.002002
vt 0.335335 0.248999
vt 0.002002 0.248999
vt 0.332332 0.248999
vt 0.332332 0.002002
vt 0.002002 0.748999
vt 0.332332 0.502002
vt 0.332332 0.748999
vt 0.665666 0.252002
vt 0.665666 0.498999
vt 0.335335 0.498999
vt 0.335335 0.748999
vt 0.665666 0.748999
vt 0.665666 0.502002
vt 0.998999 0.498999
vt 0.668669 0.498999
vt 0.998999 0.252002
vt 0.998999 0.248999
vt 0.668669 0.248999
vt 0.998999 0.002002
vt 0.002002 0.998999
vt 0.332332 0.998999
vt 0.332332 0.752002
vt 0.668669 0.748999
vt 0.998999 0.748999
vt 0.998999 0.502002
vt 0.001001 0.997998
vt 0.001001 0.751001
vt 0.331331 0.751001
vt 0.667668 0.747998
vt 0.667668 0.501001
vt 0.997998 0.501001
vt 0.334334 0.747998
vt 0.664665 0.501001
vt 0.334334 0.501001
vt 0.667668 0.497998
vt 0.997998 0.251001
vt 0.667668 0.251001
vt 0.667668 0.247998
vt 0.997998 0.001001
vt 0.667668 0.001001
vt 0.001001 0.501001
vt 0.001001 0.747998
vt 0.331331 0.501001
vt 0.664665 0.251001
vt 0.334334 0.251001
vt 0.334334 0.497998
vt 0.664665 0.001001
vt 0.334334 0.001001
vt 0.334334 0.247998
vt 0.001001 0.251001
vt 0.331331 0.251001
vt 0.001001 0.497998
vt 0.001001 0.247998
vt 0.001001 0.001001
vt 0.331331 0.001001
s 0
usemtl 棱角球材质
f 1/1/1 2/2/1 3/3/1
f 2/4/2 1/5/2 6/6/2
f 1/7/3 3/8/3 4/9/3
f 1/10/4 4/11/4 5/12/4
f 1/13/5 5/14/5 6/15/5
f 2/16/6 6/17/6 11/18/6
f 3/19/7 2/20/7 7/21/7
f 4/22/8 3/23/8 8/24/8
f 5/25/9 4/26/9 9/27/9
f 6/28/10 5/29/10 10/30/10
f 2/31/11 11/32/11 7/33/11
f 3/34/12 7/35/12 8/36/12
f 4/37/13 8/38/13 9/39/13
f 5/40/14 9/41/14 10/42/14
f 6/43/15 10/44/15 11/45/15
f 7/46/16 11/47/16 12/48/16
f 8/49/17 7/50/17 12/51/17
f 9/52/18 8/53/18 12/54/18
f 10/55/19 9/56/19 12/57/19
f 11/58/20 10/59/20 12/60/20
o 平面
v 3.207107 1.000000 -1.792893
v 3.207107 -1.000000 -1.792893
v 1.792893 1.000000 -3.207107
v 1.792893 -1.000000 -3.207107
vn 0.7071 -0.0000 -0.7071
vt 0.000000 0.000000
vt 1.000000 0.000000
vt 1.000000 1.000000
vt 0.000000 1.000000
s 0
usemtl 材质
f 13/61/21 14/62/21 16/63/21 15/64/21
o 平面.001
v 1.792893 1.000000 3.207107
v 1.792893 -1.000000 3.207107
v 3.207107 1.000000 1.792893
v 3.207107 -1.000000 1.792893
vn 0.7071 -0.0000 0.7071
vt 0.000000 0.000000
vt 1.000000 0.000000
vt 1.000000 1.000000
vt 0.000000 1.000000
s 0
usemtl 材质.001
f 17/65/22 18/66/22 20/67/22 19/68/22
o 平面.002
v 2.000000 1.000000 1.000000
v 2.000000 -1.000000 1.000000
v 2.000000 1.000000 -1.000000
v 2.000000 -1.000000 -1.000000
vn 1.0000 -0.0000 -0.0000
vt 0.000000 0.000000
vt 1.000000 0.000000
vt 1.000000 1.000000
vt 0.000000 1.000000
s 0
usemtl 材质.002
f 21/69/23 22/70/23 24/71/23 23/72/23
o 平面.003
v 3.000000 1.000000 1.000000
v 3.000000 -1.000000 1.000000
v 3.000000 1.000000 -1.000000
v 3.000000 -1.000000 -1.000000
vn 1.0000 -0.0000 -0.0000
vt 0.000000 0.000000
vt 1.000000 0.000000
vt 1.000000 1.000000
vt 0.000000 1.000000
s 0
usemtl 材质.003
f 25/73/24 26/74/24 28/75/24 27/76/24
